<svg width="307" height="54" viewBox="0 0 307 54" fill="none" xmlns="http://www.w3.org/2000/svg">
<path d="M24.56 7.3125C14.6337 7.3125 6.65167 16.0875 6.65167 27C6.65167 35.775 11.8707 43.0875 18.9317 45.5625" stroke="#4A5640" stroke-width="1.8" stroke-linecap="round"/>
<path d="M14.615 37.8797C14.8319 40.7545 20.0918 43.2486 26.6475 42.7539C30.1775 42.4875 33.0793 40.6164 34.9105 38.0001C31.0312 40.358 25.9883 40.7385 20.8524 39.8871C17.7647 39.2941 15.6546 38.2143 14.615 37.8797Z" fill="#2D4A5D"/>
<path d="M19.955 18.225C21.1984 18.225 22.2063 17.1169 22.2063 15.75C22.2063 14.3831 21.1984 13.275 19.955 13.275C18.7116 13.275 17.7037 14.3831 17.7037 15.75C17.7037 17.1169 18.7116 18.225 19.955 18.225Z" fill="#7A8B66"/>
<path d="M19.955 19.6875C16.3733 19.6875 13.815 23.625 13.815 28.6875C13.815 33.75 16.885 38.25 20.9783 38.25C18.42 33.1875 19.955 28.125 24.56 26.4375C22.0017 23.625 20.9783 20.8125 19.955 19.6875Z" fill="#4A5640"/>
<path d="M29.165 18.225C30.4084 18.225 31.4164 17.1169 31.4164 15.75C31.4164 14.3831 30.4084 13.275 29.165 13.275C27.9217 13.275 26.9137 14.3831 26.9137 15.75C26.9137 17.1169 27.9217 18.225 29.165 18.225Z" fill="#62869D"/>
<path d="M29.165 19.6875C32.7467 19.6875 35.305 23.625 35.305 28.6875C35.305 33.75 32.235 38.25 28.1417 38.25C30.7 33.1875 29.165 28.125 24.56 26.4375C27.1183 23.625 28.1417 20.8125 29.165 19.6875Z" fill="#2D4A5D"/>
<path d="M27.56 7.3125C31.6533 7.3125 36.77 10.6875 40.3517 16.3125" stroke="#4A5640" stroke-width="1.5" stroke-linecap="round"/>
<path d="M27.1183 5.625C26.6067 3.375 28.1417 1.6875 30.1883 2.25C30.1883 4.5 28.6533 6.1875 27.1183 5.625Z" fill="#7A8B66"/>
<path d="M31.2117 6.75C31.7233 4.5 33.77 3.375 35.305 4.5C34.7933 6.75 32.7467 7.875 31.2117 6.75Z" fill="#7A8B66"/>
<path d="M35.2817 8.5625C36.8167 6.875 38.8633 6.875 39.8867 8.5625C38.3517 10.25 36.305 10.25 35.2817 8.5625Z" fill="#7A8B66"/>
<path d="M38.84 11.9375C40.8867 10.8125 42.9334 11.9375 43.445 13.625C41.91 14.75 39.8634 13.625 38.84 11.9375Z" fill="#7A8B66"/>
<path d="M41.3517 18.3125C43.3984 18.875 44.4217 21.6875 44.4217 23.9375C42.375 23.9375 41.3517 21.125 41.3517 18.3125Z" fill="#A73A25"/>
<path d="M53.7063 11.9215C53.948 11.9312 54.2718 11.9408 54.6778 11.9505C55.0935 11.9602 55.5043 11.965 55.9103 11.965C56.3743 11.965 56.8238 11.9602 57.2588 11.9505C57.6938 11.9408 58.0032 11.936 58.1868 11.936C59.0858 11.936 59.8302 12.0375 60.4198 12.2405C61.0192 12.4338 61.4638 12.719 61.7538 13.096C62.0535 13.473 62.2033 13.9273 62.2033 14.459C62.2033 14.7877 62.1357 15.1212 62.0003 15.4595C61.865 15.7882 61.633 16.0975 61.3043 16.3875C60.9853 16.6678 60.5455 16.895 59.9848 17.069C59.4242 17.2333 58.7185 17.3155 57.8678 17.3155H56.4758V17.0255H57.7228C58.2932 17.0255 58.7233 16.9192 59.0133 16.7065C59.313 16.4842 59.516 16.1942 59.6223 15.8365C59.7383 15.4692 59.7963 15.0632 59.7963 14.6185C59.7963 13.8548 59.661 13.2652 59.3903 12.8495C59.1197 12.4242 58.6557 12.2115 57.9983 12.2115C57.6213 12.2115 57.3748 12.2937 57.2588 12.458C57.1525 12.6223 57.0993 12.9558 57.0993 13.4585V20.6505C57.0993 20.9985 57.1235 21.2595 57.1718 21.4335C57.2298 21.6075 57.3362 21.7235 57.4908 21.7815C57.6455 21.8395 57.8775 21.8782 58.1868 21.8975V22.1875C57.9258 22.1682 57.5972 22.1585 57.2008 22.1585C56.8045 22.1488 56.4033 22.144 55.9973 22.144C55.5333 22.144 55.0935 22.1488 54.6778 22.1585C54.2718 22.1585 53.948 22.1682 53.7063 22.1875V21.8975C54.0157 21.8782 54.2477 21.8395 54.4023 21.7815C54.557 21.7235 54.6585 21.6075 54.7068 21.4335C54.7648 21.2595 54.7938 20.9985 54.7938 20.6505V13.4585C54.7938 13.1008 54.7648 12.8398 54.7068 12.6755C54.6585 12.5015 54.5522 12.3855 54.3878 12.3275C54.2332 12.2598 54.006 12.2212 53.7063 12.2115V11.9215ZM56.4468 17.069C56.8625 17.0787 57.2202 17.098 57.5198 17.127C57.8292 17.156 58.0998 17.185 58.3318 17.214C58.5638 17.2333 58.7717 17.2478 58.9553 17.2575C59.835 17.3348 60.4827 17.5233 60.8983 17.823C61.3237 18.1227 61.5992 18.5722 61.7248 19.1715L62.0583 20.665C62.1453 21.0517 62.2372 21.3223 62.3338 21.477C62.4305 21.6317 62.5707 21.709 62.7543 21.709C62.88 21.6993 62.9815 21.6703 63.0588 21.622C63.1458 21.564 63.2377 21.4818 63.3343 21.3755L63.5373 21.5495C63.2763 21.8492 62.996 22.0618 62.6963 22.1875C62.3967 22.3228 62.0342 22.3905 61.6088 22.3905C61.0868 22.3905 60.6567 22.2793 60.3183 22.057C59.98 21.8347 59.7577 21.4238 59.6513 20.8245L59.3903 19.3745C59.3227 18.9685 59.2405 18.6157 59.1438 18.316C59.0472 18.0067 58.9118 17.765 58.7378 17.591C58.5735 17.4073 58.3415 17.3155 58.0418 17.3155H56.4758L56.4468 17.069ZM74.7319 11.9215C74.6932 12.3468 74.6642 12.7577 74.6449 13.154C74.6352 13.5503 74.6304 13.8548 74.6304 14.0675C74.6304 14.2608 74.6352 14.4445 74.6449 14.6185C74.6546 14.7925 74.6642 14.9375 74.6739 15.0535H74.3404C74.2437 14.3478 74.0939 13.792 73.8909 13.386C73.6879 12.9703 73.4221 12.6803 73.0934 12.516C72.7744 12.342 72.3974 12.255 71.9624 12.255H71.3679C71.0876 12.255 70.8749 12.2792 70.7299 12.3275C70.5849 12.3758 70.4882 12.4725 70.4399 12.6175C70.3916 12.7625 70.3674 12.9848 70.3674 13.2845V20.8245C70.3674 21.1242 70.3916 21.3465 70.4399 21.4915C70.4882 21.6365 70.5849 21.7332 70.7299 21.7815C70.8749 21.8298 71.0876 21.854 71.3679 21.854H72.0784C72.5134 21.854 72.8952 21.7622 73.2239 21.5785C73.5622 21.3852 73.8474 21.0613 74.0794 20.607C74.3211 20.1527 74.5047 19.5388 74.6304 18.7655H74.9639C74.9349 19.0748 74.9204 19.4808 74.9204 19.9835C74.9204 20.2058 74.9252 20.52 74.9349 20.926C74.9446 21.332 74.9736 21.7525 75.0219 22.1875C74.5289 22.1682 73.9731 22.1585 73.3544 22.1585C72.7357 22.1488 72.1847 22.144 71.7014 22.144C71.4597 22.144 71.1504 22.144 70.7734 22.144C70.3964 22.144 69.9904 22.1488 69.5554 22.1585C69.1204 22.1585 68.6806 22.1633 68.2359 22.173C67.7912 22.173 67.3707 22.1778 66.9744 22.1875V21.8975C67.2837 21.8782 67.5157 21.8395 67.6704 21.7815C67.8251 21.7235 67.9266 21.6075 67.9749 21.4335C68.0329 21.2595 68.0619 20.9985 68.0619 20.6505V13.4585C68.0619 13.1008 68.0329 12.8398 67.9749 12.6755C67.9266 12.5015 67.8202 12.3855 67.6559 12.3275C67.5012 12.2598 67.2741 12.2212 66.9744 12.2115V11.9215C67.3707 11.9312 67.7912 11.9408 68.2359 11.9505C68.6806 11.9505 69.1204 11.9553 69.5554 11.965C69.9904 11.965 70.3964 11.965 70.7734 11.965C71.1504 11.965 71.4597 11.965 71.7014 11.965C72.1461 11.965 72.6487 11.965 73.2094 11.965C73.7797 11.9553 74.2872 11.9408 74.7319 11.9215ZM72.4699 16.8805C72.4699 16.8805 72.4699 16.9288 72.4699 17.0255C72.4699 17.1222 72.4699 17.1705 72.4699 17.1705H69.9324C69.9324 17.1705 69.9324 17.1222 69.9324 17.0255C69.9324 16.9288 69.9324 16.8805 69.9324 16.8805H72.4699ZM72.8904 14.9665C72.8517 15.5175 72.8324 15.938 72.8324 16.228C72.8421 16.518 72.8469 16.7838 72.8469 17.0255C72.8469 17.2672 72.8517 17.533 72.8614 17.823C72.8711 18.113 72.8952 18.5335 72.9339 19.0845H72.6004C72.5521 18.7462 72.4602 18.432 72.3249 18.142C72.1992 17.852 72.0156 17.62 71.7739 17.446C71.5322 17.2623 71.2181 17.1705 70.8314 17.1705V16.8805C71.1214 16.8805 71.3679 16.8225 71.5709 16.7065C71.7739 16.5808 71.9382 16.4213 72.0639 16.228C72.1992 16.025 72.3056 15.8123 72.3829 15.59C72.4602 15.3677 72.5182 15.1598 72.5569 14.9665H72.8904ZM84.8121 11.7185C85.4501 11.7185 85.9721 11.8152 86.3781 12.0085C86.7938 12.1922 87.1611 12.4097 87.4801 12.661C87.6734 12.806 87.8184 12.8253 87.9151 12.719C88.0214 12.603 88.0939 12.3372 88.1326 11.9215H88.4661C88.4468 12.2985 88.4323 12.7577 88.4226 13.299C88.4129 13.8307 88.4081 14.5412 88.4081 15.4305H88.0746C88.0263 14.9858 87.9634 14.6088 87.8861 14.2995C87.8088 13.9805 87.7024 13.7002 87.5671 13.4585C87.4318 13.2168 87.2384 12.9993 86.9871 12.806C86.7454 12.5643 86.4651 12.3855 86.1461 12.2695C85.8271 12.1535 85.4936 12.0955 85.1456 12.0955C84.6236 12.0955 84.1789 12.2357 83.8116 12.516C83.4443 12.7867 83.1446 13.1588 82.9126 13.6325C82.6903 14.1062 82.5259 14.6427 82.4196 15.242C82.3133 15.8317 82.2601 16.4455 82.2601 17.0835C82.2601 17.7312 82.3133 18.3547 82.4196 18.954C82.5356 19.5437 82.7096 20.0705 82.9416 20.5345C83.1833 20.9985 83.4926 21.3658 83.8696 21.6365C84.2466 21.9072 84.6913 22.0425 85.2036 22.0425C85.5226 22.0425 85.8416 21.9845 86.1606 21.8685C86.4893 21.7428 86.7696 21.564 87.0016 21.332C87.3786 21.042 87.6348 20.6843 87.7701 20.259C87.9054 19.824 88.0069 19.2488 88.0746 18.5335H88.4081C88.4081 19.4518 88.4129 20.1962 88.4226 20.7665C88.4323 21.3272 88.4468 21.8008 88.4661 22.1875H88.1326C88.0939 21.7718 88.0263 21.5108 87.9296 21.4045C87.8426 21.2982 87.6928 21.3127 87.4801 21.448C87.1224 21.6993 86.7406 21.9217 86.3346 22.115C85.9383 22.2987 85.4259 22.3905 84.7976 22.3905C83.7729 22.3905 82.8739 22.1827 82.1006 21.767C81.3369 21.3513 80.7424 20.752 80.3171 19.969C79.8918 19.186 79.6791 18.2435 79.6791 17.1415C79.6791 16.0588 79.8966 15.1115 80.3316 14.2995C80.7763 13.4875 81.3804 12.8543 82.1441 12.4C82.9174 11.9457 83.8068 11.7185 84.8121 11.7185Z" fill="#2D4A5D"/>
<path d="M97.1934 14.1875C97.5337 14.8784 97.7119 15.6518 97.7119 16.4375C97.7119 17.2232 97.5337 17.9966 97.1934 18.6875" stroke="#A73A25"/>
<path opacity="0.5" d="M53.2133 33.1875H73.68" stroke="#4A5640" stroke-width="0.8"/>
<path d="M84.6109 31.6152H83.5999C83.5814 31.4844 83.5437 31.3683 83.4868 31.2667C83.4299 31.1636 83.3568 31.0759 83.2675 31.0036C83.1783 30.9312 83.0752 30.8758 82.9582 30.8374C82.8428 30.7989 82.7174 30.7797 82.582 30.7797C82.3373 30.7797 82.1242 30.8404 81.9426 30.962C81.761 31.082 81.6202 31.2575 81.5202 31.4883C81.4201 31.7176 81.3701 31.9961 81.3701 32.3239C81.3701 32.6609 81.4201 32.944 81.5202 33.1733C81.6217 33.4026 81.7633 33.5757 81.9449 33.6926C82.1265 33.8096 82.3365 33.8681 82.575 33.8681C82.7089 33.8681 82.8328 33.8504 82.9467 33.815C83.0621 33.7796 83.1644 33.728 83.2537 33.6603C83.3429 33.5911 83.4168 33.5072 83.4752 33.4087C83.5353 33.3103 83.5768 33.1979 83.5999 33.0717L84.6109 33.0763C84.5847 33.2933 84.5193 33.5026 84.4147 33.7042C84.3116 33.9042 84.1723 34.0835 83.9969 34.242C83.823 34.399 83.6153 34.5236 83.3737 34.6159C83.1336 34.7067 82.862 34.7521 82.5589 34.7521C82.1372 34.7521 81.7602 34.6567 81.4278 34.4659C81.097 34.2751 80.8354 33.9989 80.643 33.6373C80.4522 33.2756 80.3568 32.8378 80.3568 32.3239C80.3568 31.8084 80.4538 31.3698 80.6477 31.0082C80.8415 30.6465 81.1047 30.3711 81.4371 30.1818C81.7695 29.991 82.1434 29.8956 82.5589 29.8956C82.8328 29.8956 83.0867 29.9341 83.3206 30.011C83.556 30.0879 83.7645 30.2003 83.9461 30.348C84.1277 30.4942 84.2754 30.6735 84.3893 30.8858C84.5047 31.0982 84.5786 31.3413 84.6109 31.6152ZM89.6717 32.3239C89.6717 32.8394 89.574 33.2779 89.3786 33.6396C89.1847 34.0012 88.92 34.2774 88.5845 34.4682C88.2506 34.6575 87.8751 34.7521 87.4581 34.7521C87.038 34.7521 86.661 34.6567 86.3271 34.4659C85.9932 34.2751 85.7292 33.9989 85.5354 33.6373C85.3415 33.2756 85.2445 32.8378 85.2445 32.3239C85.2445 31.8084 85.3415 31.3698 85.5354 31.0082C85.7292 30.6465 85.9932 30.3711 86.3271 30.1818C86.661 29.991 87.038 29.8956 87.4581 29.8956C87.8751 29.8956 88.2506 29.991 88.5845 30.1818C88.92 30.3711 89.1847 30.6465 89.3786 31.0082C89.574 31.3698 89.6717 31.8084 89.6717 32.3239ZM88.6584 32.3239C88.6584 31.9899 88.6084 31.7083 88.5084 31.479C88.4099 31.2498 88.2706 31.0759 88.0906 30.9574C87.9105 30.8389 87.6997 30.7797 87.4581 30.7797C87.2165 30.7797 87.0057 30.8389 86.8257 30.9574C86.6456 31.0759 86.5056 31.2498 86.4056 31.479C86.3071 31.7083 86.2578 31.9899 86.2578 32.3239C86.2578 32.6578 86.3071 32.9394 86.4056 33.1687C86.5056 33.398 86.6456 33.5719 86.8257 33.6903C87.0057 33.8088 87.2165 33.8681 87.4581 33.8681C87.6997 33.8681 87.9105 33.8088 88.0906 33.6903C88.2706 33.5719 88.4099 33.398 88.5084 33.1687C88.6084 32.9394 88.6584 32.6578 88.6584 32.3239ZM93.332 29.9602H94.3315V33.0302C94.3315 33.3749 94.2491 33.6765 94.0845 33.935C93.9214 34.1935 93.6929 34.3951 93.3989 34.5398C93.105 34.6829 92.7626 34.7544 92.3718 34.7544C91.9794 34.7544 91.6362 34.6829 91.3423 34.5398C91.0484 34.3951 90.8199 34.1935 90.6568 33.935C90.4936 33.6765 90.4121 33.3749 90.4121 33.0302V29.9602H91.4115V32.9448C91.4115 33.1248 91.4508 33.2849 91.5293 33.4249C91.6093 33.5649 91.7216 33.675 91.8663 33.755C92.0109 33.835 92.1794 33.875 92.3718 33.875C92.5657 33.875 92.7342 33.835 92.8773 33.755C93.0219 33.675 93.1335 33.5649 93.212 33.4249C93.292 33.2849 93.332 33.1248 93.332 32.9448V29.9602ZM99.1078 29.9602V34.6875H98.2445L96.1879 31.7122H96.1532V34.6875H95.1538V29.9602H96.0309L98.0714 32.9332H98.1129V29.9602H99.1078ZM102.498 31.3198C102.48 31.1336 102.4 30.9889 102.26 30.8858C102.12 30.7827 101.93 30.7312 101.69 30.7312C101.527 30.7312 101.389 30.7543 101.277 30.8004C101.165 30.8451 101.078 30.9074 101.018 30.9874C100.96 31.0674 100.931 31.1582 100.931 31.2598C100.928 31.3444 100.945 31.4183 100.984 31.4814C101.024 31.5444 101.078 31.5991 101.148 31.6452C101.217 31.6899 101.297 31.7291 101.388 31.763C101.479 31.7953 101.575 31.823 101.679 31.8461L102.103 31.9476C102.31 31.9938 102.499 32.0553 102.671 32.1323C102.843 32.2092 102.993 32.3039 103.119 32.4162C103.245 32.5285 103.343 32.6609 103.412 32.8132C103.483 32.9656 103.519 33.1402 103.521 33.3372C103.519 33.6265 103.445 33.8773 103.299 34.0897C103.154 34.3005 102.945 34.4644 102.671 34.5813C102.399 34.6967 102.07 34.7544 101.686 34.7544C101.304 34.7544 100.972 34.696 100.688 34.579C100.407 34.4621 100.187 34.2889 100.028 34.0597C99.8712 33.8288 99.7889 33.5434 99.7812 33.2033H100.748C100.759 33.3618 100.805 33.4941 100.885 33.6003C100.966 33.705 101.075 33.7842 101.21 33.8381C101.347 33.8904 101.502 33.9165 101.674 33.9165C101.843 33.9165 101.99 33.8919 102.115 33.8427C102.241 33.7934 102.339 33.725 102.408 33.6373C102.477 33.5495 102.512 33.4487 102.512 33.3349C102.512 33.2287 102.48 33.1394 102.417 33.0671C102.356 32.9948 102.265 32.9332 102.145 32.8825C102.026 32.8317 101.881 32.7855 101.709 32.744L101.194 32.6147C100.795 32.5178 100.481 32.3662 100.25 32.16C100.019 31.9538 99.9043 31.676 99.9059 31.3267C99.9043 31.0405 99.9805 30.7904 100.134 30.5765C100.29 30.3626 100.503 30.1957 100.774 30.0756C101.045 29.9556 101.352 29.8956 101.697 29.8956C102.048 29.8956 102.354 29.9556 102.616 30.0756C102.879 30.1957 103.084 30.3626 103.23 30.5765C103.376 30.7904 103.451 31.0382 103.456 31.3198H102.498ZM104.193 34.6875V29.9602H107.378V30.7843H105.192V31.9107H107.214V32.7347H105.192V33.8635H107.387V34.6875H104.193ZM108.173 34.6875V29.9602H109.172V33.8635H111.199V34.6875H108.173ZM111.861 34.6875V29.9602H112.86V33.8635H114.887V34.6875H111.861ZM116.548 29.9602V34.6875H115.549V29.9602H116.548ZM121.325 29.9602V34.6875H120.461L118.405 31.7122H118.37V34.6875H117.371V29.9602H118.248L120.288 32.9332H120.33V29.9602H121.325ZM125.285 31.4883C125.253 31.3759 125.207 31.2767 125.149 31.1905C125.09 31.1028 125.019 31.0289 124.934 30.9689C124.851 30.9074 124.756 30.8604 124.648 30.8281C124.542 30.7958 124.424 30.7797 124.295 30.7797C124.053 30.7797 123.841 30.8397 123.658 30.9597C123.476 31.0797 123.334 31.2544 123.233 31.4837C123.131 31.7114 123.081 31.9899 123.081 32.3192C123.081 32.6486 123.131 32.9286 123.231 33.1594C123.331 33.3903 123.472 33.5665 123.655 33.688C123.838 33.8081 124.055 33.8681 124.304 33.8681C124.53 33.8681 124.723 33.8281 124.883 33.748C125.045 33.6665 125.168 33.5518 125.253 33.4041C125.339 33.2564 125.382 33.0817 125.382 32.8801L125.585 32.9102H124.366V32.1577H126.344V32.7532C126.344 33.1687 126.257 33.5257 126.081 33.8242C125.906 34.1212 125.664 34.3505 125.357 34.5121C125.049 34.6721 124.696 34.7521 124.299 34.7521C123.856 34.7521 123.467 34.6544 123.131 34.459C122.796 34.262 122.534 33.9827 122.347 33.6211C122.16 33.2579 122.067 32.8271 122.067 32.3285C122.067 31.9453 122.123 31.6037 122.233 31.3036C122.346 31.002 122.503 30.7466 122.704 30.5373C122.906 30.328 123.141 30.1687 123.408 30.0595C123.676 29.9502 123.966 29.8956 124.279 29.8956C124.546 29.8956 124.796 29.9348 125.026 30.0133C125.257 30.0903 125.462 30.1995 125.64 30.3411C125.82 30.4827 125.967 30.6512 126.081 30.8466C126.195 31.0405 126.268 31.2544 126.301 31.4883H125.285Z" fill="#7A8B66"/>
<path opacity="0.5" d="M133.033 33.1875H153.5" stroke="#4A5640" stroke-width="0.8"/>
<path d="M73.6689 47.0625V43.0625H75.0205C75.333 43.0625 75.5895 43.1159 75.79 43.2227C75.9906 43.3281 76.139 43.4733 76.2353 43.6582C76.3317 43.8431 76.3799 44.0534 76.3799 44.2891C76.3799 44.5247 76.3317 44.7337 76.2353 44.916C76.139 45.0983 75.9912 45.2415 75.792 45.3457C75.5928 45.4486 75.3382 45.5 75.0283 45.5H73.9346V45.0625H75.0127C75.2262 45.0625 75.3981 45.0312 75.5283 44.9687C75.6598 44.9062 75.7549 44.8177 75.8135 44.7031C75.8734 44.5872 75.9033 44.4492 75.9033 44.2891C75.9033 44.1289 75.8734 43.9889 75.8135 43.8691C75.7536 43.7493 75.6579 43.6569 75.5264 43.5918C75.3949 43.5254 75.221 43.4922 75.0049 43.4922H74.1533V47.0625H73.6689ZM75.5518 45.2656L76.5361 47.0625H75.9736L75.0049 45.2656H75.5518ZM78.3501 47.125C78.061 47.125 77.8117 47.0612 77.602 46.9336C77.3937 46.8047 77.2329 46.625 77.1196 46.3945C77.0076 46.1628 76.9517 45.8932 76.9517 45.5859C76.9517 45.2786 77.0076 45.0078 77.1196 44.7734C77.2329 44.5378 77.3905 44.3542 77.5923 44.2227C77.7954 44.0898 78.0324 44.0234 78.3032 44.0234C78.4595 44.0234 78.6138 44.0495 78.7661 44.1016C78.9185 44.1536 79.0571 44.2383 79.1821 44.3555C79.3071 44.4714 79.4067 44.625 79.481 44.8164C79.5552 45.0078 79.5923 45.2435 79.5923 45.5234V45.7187H77.2798V45.3203H79.1235C79.1235 45.151 79.0897 45 79.022 44.8672C78.9556 44.7344 78.8605 44.6296 78.7368 44.5527C78.6144 44.4759 78.4699 44.4375 78.3032 44.4375C78.1196 44.4375 77.9608 44.4831 77.8267 44.5742C77.6938 44.6641 77.5916 44.7812 77.52 44.9258C77.4484 45.0703 77.4126 45.2253 77.4126 45.3906V45.6563C77.4126 45.8828 77.4517 46.0749 77.5298 46.2324C77.6092 46.3887 77.7192 46.5078 77.8599 46.5898C78.0005 46.6706 78.1639 46.7109 78.3501 46.7109C78.4712 46.7109 78.5806 46.694 78.6782 46.6602C78.7772 46.625 78.8625 46.5729 78.9341 46.5039C79.0057 46.4336 79.061 46.3464 79.1001 46.2422L79.5454 46.3672C79.4985 46.5182 79.4198 46.651 79.3091 46.7656C79.1984 46.8789 79.0617 46.9674 78.8989 47.0312C78.7362 47.0938 78.5532 47.125 78.3501 47.125ZM81.5122 47.125C81.231 47.125 80.9888 47.0586 80.7856 46.9258C80.5825 46.793 80.4263 46.61 80.3169 46.377C80.2075 46.1439 80.1528 45.8776 80.1528 45.5781C80.1528 45.2734 80.2088 45.0046 80.3208 44.7715C80.4341 44.5371 80.5916 44.3542 80.7935 44.2227C80.9966 44.0898 81.2336 44.0234 81.5044 44.0234C81.7153 44.0234 81.9054 44.0625 82.0747 44.1406C82.244 44.2187 82.3826 44.3281 82.4907 44.4687C82.5988 44.6094 82.6658 44.7734 82.6919 44.9609H82.231C82.1958 44.8242 82.1177 44.7031 81.9966 44.5977C81.8768 44.4909 81.7153 44.4375 81.5122 44.4375C81.3325 44.4375 81.175 44.4844 81.0395 44.5781C80.9054 44.6706 80.8006 44.8014 80.7251 44.9707C80.6509 45.1387 80.6138 45.3359 80.6138 45.5625C80.6138 45.7943 80.6502 45.9961 80.7231 46.168C80.7974 46.3398 80.9015 46.4733 81.0356 46.5684C81.1711 46.6634 81.3299 46.7109 81.5122 46.7109C81.632 46.7109 81.7407 46.6901 81.8384 46.6484C81.936 46.6068 82.0187 46.5469 82.0864 46.4687C82.1541 46.3906 82.2023 46.2969 82.231 46.1875H82.6919C82.6658 46.3646 82.6014 46.5241 82.4985 46.666C82.397 46.8066 82.2622 46.9186 82.0942 47.002C81.9276 47.084 81.7336 47.125 81.5122 47.125ZM84.5845 47.125C84.3136 47.125 84.076 47.0605 83.8716 46.9316C83.6685 46.8027 83.5096 46.6224 83.395 46.3906C83.2817 46.1589 83.2251 45.888 83.2251 45.5781C83.2251 45.2656 83.2817 44.9928 83.395 44.7598C83.5096 44.5267 83.6685 44.3457 83.8716 44.2168C84.076 44.0879 84.3136 44.0234 84.5845 44.0234C84.8553 44.0234 85.0923 44.0879 85.2954 44.2168C85.4998 44.3457 85.6587 44.5267 85.772 44.7598C85.8866 44.9928 85.9438 45.2656 85.9438 45.5781C85.9438 45.888 85.8866 46.1589 85.772 46.3906C85.6587 46.6224 85.4998 46.8027 85.2954 46.9316C85.0923 47.0605 84.8553 47.125 84.5845 47.125ZM84.5845 46.7109C84.7902 46.7109 84.9595 46.6582 85.0923 46.5527C85.2251 46.4473 85.3234 46.3086 85.3872 46.1367C85.451 45.9648 85.4829 45.7786 85.4829 45.5781C85.4829 45.3776 85.451 45.1908 85.3872 45.0176C85.3234 44.8444 85.2251 44.7044 85.0923 44.5977C84.9595 44.4909 84.7902 44.4375 84.5845 44.4375C84.3787 44.4375 84.2095 44.4909 84.0767 44.5977C83.9438 44.7044 83.8455 44.8444 83.7817 45.0176C83.7179 45.1908 83.686 45.3776 83.686 45.5781C83.686 45.7786 83.7179 45.9648 83.7817 46.1367C83.8455 46.3086 83.9438 46.4473 84.0767 46.5527C84.2095 46.6582 84.3787 46.7109 84.5845 46.7109ZM87.1084 45.2578V47.0625H86.6475V44.0625H87.0928V44.5312H87.1318C87.2021 44.3789 87.3089 44.2565 87.4521 44.1641C87.5954 44.0703 87.7803 44.0234 88.0068 44.0234C88.21 44.0234 88.3877 44.0651 88.54 44.1484C88.6924 44.2305 88.8109 44.3555 88.8955 44.5234C88.9801 44.6901 89.0225 44.901 89.0225 45.1563V47.0625H88.5615V45.1875C88.5615 44.9518 88.5003 44.7682 88.3779 44.6367C88.2555 44.5039 88.0876 44.4375 87.874 44.4375C87.7269 44.4375 87.5954 44.4694 87.4795 44.5332C87.3649 44.597 87.2744 44.6901 87.208 44.8125C87.1416 44.9349 87.1084 45.0833 87.1084 45.2578ZM90.3257 45.2578V47.0625H89.8647V44.0625H90.3101V44.5312H90.3491C90.4194 44.3789 90.5262 44.2565 90.6694 44.1641C90.8127 44.0703 90.9976 44.0234 91.2241 44.0234C91.4272 44.0234 91.605 44.0651 91.7573 44.1484C91.9097 44.2305 92.0282 44.3555 92.1128 44.5234C92.1974 44.6901 92.2397 44.901 92.2397 45.1563V47.0625H91.7788V45.1875C91.7788 44.9518 91.7176 44.7682 91.5952 44.6367C91.4728 44.5039 91.3048 44.4375 91.0913 44.4375C90.9442 44.4375 90.8127 44.4694 90.6968 44.5332C90.5822 44.597 90.4917 44.6901 90.4253 44.8125C90.3589 44.9349 90.3257 45.0833 90.3257 45.2578ZM94.3398 47.125C94.0508 47.125 93.8014 47.0612 93.5918 46.9336C93.3835 46.8047 93.2227 46.625 93.1094 46.3945C92.9974 46.1628 92.9414 45.8932 92.9414 45.5859C92.9414 45.2786 92.9974 45.0078 93.1094 44.7734C93.2227 44.5378 93.3802 44.3542 93.582 44.2227C93.7852 44.0898 94.0221 44.0234 94.293 44.0234C94.4492 44.0234 94.6035 44.0495 94.7559 44.1016C94.9082 44.1536 95.0469 44.2383 95.1719 44.3555C95.2969 44.4714 95.3965 44.625 95.4707 44.8164C95.5449 45.0078 95.582 45.2435 95.582 45.5234V45.7187H93.2695V45.3203H95.1133C95.1133 45.151 95.0794 45 95.0117 44.8672C94.9453 44.7344 94.8503 44.6296 94.7266 44.5527C94.6042 44.4759 94.4596 44.4375 94.293 44.4375C94.1094 44.4375 93.9505 44.4831 93.8164 44.5742C93.6836 44.6641 93.5814 44.7812 93.5098 44.9258C93.4381 45.0703 93.4023 45.2253 93.4023 45.3906V45.6563C93.4023 45.8828 93.4414 46.0749 93.5195 46.2324C93.599 46.3887 93.709 46.5078 93.8496 46.5898C93.9902 46.6706 94.1536 46.7109 94.3398 46.7109C94.4609 46.7109 94.5703 46.694 94.668 46.6602C94.7669 46.625 94.8522 46.5729 94.9238 46.5039C94.9954 46.4336 95.0508 46.3464 95.0898 46.2422L95.5352 46.3672C95.4883 46.5182 95.4095 46.651 95.2988 46.7656C95.1881 46.8789 95.0514 46.9674 94.8887 47.0312C94.7259 47.0938 94.543 47.125 94.3398 47.125ZM97.5019 47.125C97.2207 47.125 96.9785 47.0586 96.7754 46.9258C96.5723 46.793 96.416 46.61 96.3066 46.377C96.1973 46.1439 96.1426 45.8776 96.1426 45.5781C96.1426 45.2734 96.1986 45.0046 96.3105 44.7715C96.4238 44.5371 96.5814 44.3542 96.7832 44.2227C96.9863 44.0898 97.2233 44.0234 97.4941 44.0234C97.7051 44.0234 97.8952 44.0625 98.0644 44.1406C98.2337 44.2187 98.3724 44.3281 98.4805 44.4687C98.5885 44.6094 98.6556 44.7734 98.6816 44.9609H98.2207C98.1855 44.8242 98.1074 44.7031 97.9863 44.5977C97.8665 44.4909 97.7051 44.4375 97.5019 44.4375C97.3223 44.4375 97.1647 44.4844 97.0293 44.5781C96.8952 44.6706 96.7904 44.8014 96.7148 44.9707C96.6406 45.1387 96.6035 45.3359 96.6035 45.5625C96.6035 45.7943 96.64 45.9961 96.7129 46.168C96.7871 46.3398 96.8913 46.4733 97.0254 46.5684C97.1608 46.6634 97.3197 46.7109 97.5019 46.7109C97.6217 46.7109 97.7305 46.6901 97.8281 46.6484C97.9258 46.6068 98.0085 46.5469 98.0762 46.4687C98.1439 46.3906 98.1921 46.2969 98.2207 46.1875H98.6816C98.6556 46.3646 98.5911 46.5241 98.4883 46.666C98.3867 46.8066 98.2519 46.9186 98.084 47.002C97.9173 47.084 97.7233 47.125 97.5019 47.125ZM100.66 44.0625V44.4531H99.1055V44.0625H100.66ZM99.5586 43.3437H100.02V46.2031C100.02 46.3333 100.038 46.431 100.076 46.4961C100.115 46.5599 100.165 46.6029 100.225 46.625C100.286 46.6458 100.35 46.6562 100.418 46.6562C100.469 46.6562 100.51 46.6536 100.543 46.6484C100.576 46.6419 100.602 46.6367 100.621 46.6328L100.715 47.0469C100.684 47.0586 100.64 47.0703 100.584 47.082C100.528 47.0951 100.457 47.1016 100.371 47.1016C100.241 47.1016 100.113 47.0736 99.9883 47.0176C99.8646 46.9616 99.7617 46.8763 99.6797 46.7617C99.599 46.6471 99.5586 46.5026 99.5586 46.3281V43.3437ZM101.689 47.0938C101.593 47.0938 101.51 47.0592 101.441 46.9902C101.372 46.9212 101.338 46.8385 101.338 46.7422C101.338 46.6458 101.372 46.5632 101.441 46.4941C101.51 46.4251 101.593 46.3906 101.689 46.3906C101.786 46.3906 101.868 46.4251 101.937 46.4941C102.007 46.5632 102.041 46.6458 102.041 46.7422C102.041 46.806 102.025 46.8646 101.992 46.918C101.961 46.9714 101.919 47.0143 101.865 47.0469C101.813 47.0781 101.755 47.0938 101.689 47.0938ZM104.478 47.0625V43.0625H104.962V44.8437H107.095V43.0625H107.579V47.0625H107.095V45.2734H104.962V47.0625H104.478ZM109.744 47.125C109.455 47.125 109.206 47.0612 108.996 46.9336C108.788 46.8047 108.627 46.625 108.514 46.3945C108.402 46.1628 108.346 45.8932 108.346 45.5859C108.346 45.2786 108.402 45.0078 108.514 44.7734C108.627 44.5378 108.785 44.3542 108.986 44.2227C109.189 44.0898 109.426 44.0234 109.697 44.0234C109.854 44.0234 110.008 44.0495 110.16 44.1016C110.312 44.1536 110.451 44.2383 110.576 44.3555C110.701 44.4714 110.801 44.625 110.875 44.8164C110.949 45.0078 110.986 45.2435 110.986 45.5234V45.7187H108.674V45.3203H110.518C110.518 45.151 110.484 45 110.416 44.8672C110.35 44.7344 110.255 44.6296 110.131 44.5527C110.008 44.4759 109.864 44.4375 109.697 44.4375C109.514 44.4375 109.355 44.4831 109.221 44.5742C109.088 44.6641 108.986 44.7812 108.914 44.9258C108.842 45.0703 108.807 45.2253 108.807 45.3906V45.6563C108.807 45.8828 108.846 46.0749 108.924 46.2324C109.003 46.3887 109.113 46.5078 109.254 46.5898C109.395 46.6706 109.558 46.7109 109.744 46.7109C109.865 46.7109 109.975 46.694 110.072 46.6602C110.171 46.625 110.257 46.5729 110.328 46.5039C110.4 46.4336 110.455 46.3464 110.494 46.2422L110.939 46.3672C110.893 46.5182 110.814 46.651 110.703 46.7656C110.592 46.8789 110.456 46.9674 110.293 47.0312C110.13 47.0938 109.947 47.125 109.744 47.125ZM112.57 47.1328C112.38 47.1328 112.208 47.097 112.053 47.0254C111.898 46.9525 111.775 46.8477 111.684 46.7109C111.592 46.5729 111.547 46.4062 111.547 46.2109C111.547 46.0391 111.581 45.8997 111.648 45.793C111.716 45.6849 111.807 45.6003 111.92 45.5391C112.033 45.4779 112.158 45.4323 112.295 45.4023C112.433 45.3711 112.572 45.3464 112.711 45.3281C112.893 45.3047 113.041 45.2871 113.154 45.2754C113.269 45.2624 113.352 45.2409 113.404 45.2109C113.458 45.181 113.484 45.1289 113.484 45.0547V45.0391C113.484 44.8464 113.432 44.6966 113.326 44.5898C113.222 44.4831 113.064 44.4297 112.852 44.4297C112.632 44.4297 112.459 44.4779 112.334 44.5742C112.209 44.6706 112.121 44.7734 112.07 44.8828L111.633 44.7266C111.711 44.5443 111.815 44.4023 111.945 44.3008C112.077 44.1979 112.22 44.1263 112.375 44.0859C112.531 44.0443 112.685 44.0234 112.836 44.0234C112.932 44.0234 113.043 44.0352 113.168 44.0586C113.294 44.0807 113.416 44.127 113.533 44.1973C113.652 44.2676 113.75 44.3737 113.828 44.5156C113.906 44.6576 113.945 44.8477 113.945 45.0859V47.0625H113.484V46.6562H113.461C113.43 46.7214 113.378 46.791 113.305 46.8652C113.232 46.9395 113.135 47.0026 113.014 47.0547C112.893 47.1068 112.745 47.1328 112.57 47.1328ZM112.641 46.7188C112.823 46.7188 112.977 46.6829 113.102 46.6113C113.228 46.5397 113.323 46.4473 113.387 46.334C113.452 46.2207 113.484 46.1016 113.484 45.9766V45.5547C113.465 45.5781 113.422 45.5996 113.355 45.6191C113.29 45.6374 113.215 45.6536 113.129 45.668C113.044 45.681 112.962 45.6927 112.881 45.7031C112.801 45.7122 112.737 45.7201 112.687 45.7266C112.568 45.7422 112.456 45.7676 112.352 45.8027C112.249 45.8366 112.165 45.888 112.102 45.957C112.039 46.0247 112.008 46.1172 112.008 46.2344C112.008 46.3945 112.067 46.5156 112.186 46.5977C112.305 46.6784 112.457 46.7188 112.641 46.7188ZM115.248 43.0625V47.0625H114.787V43.0625H115.248ZM116.428 47.0938C116.331 47.0938 116.249 47.0592 116.18 46.9902C116.111 46.9212 116.076 46.8385 116.076 46.7422C116.076 46.6458 116.111 46.5632 116.18 46.4941C116.249 46.4251 116.331 46.3906 116.428 46.3906C116.524 46.3906 116.607 46.4251 116.676 46.4941C116.745 46.5632 116.779 46.6458 116.779 46.7422C116.779 46.806 116.763 46.8646 116.73 46.918C116.699 46.9714 116.657 47.0143 116.604 47.0469C116.551 47.0781 116.493 47.0938 116.428 47.0938ZM121.95 44.3125C121.907 44.181 121.851 44.0632 121.78 43.959C121.711 43.8535 121.629 43.7637 121.532 43.6895C121.437 43.6152 121.329 43.5586 121.208 43.5195C121.087 43.4805 120.954 43.4609 120.81 43.4609C120.573 43.4609 120.357 43.5221 120.163 43.6445C119.969 43.7669 119.815 43.9473 119.7 44.1855C119.586 44.4238 119.528 44.7161 119.528 45.0625C119.528 45.4089 119.586 45.7012 119.702 45.9395C119.818 46.1777 119.975 46.3581 120.173 46.4805C120.371 46.6029 120.593 46.6641 120.841 46.6641C121.07 46.6641 121.272 46.6152 121.446 46.5176C121.622 46.4186 121.759 46.2793 121.856 46.0996C121.955 45.9186 122.005 45.7057 122.005 45.4609L122.153 45.4922H120.95V45.0625H122.474V45.4922C122.474 45.8216 122.403 46.1081 122.263 46.3516C122.123 46.5951 121.931 46.7839 121.685 46.918C121.44 47.0508 121.159 47.1172 120.841 47.1172C120.487 47.1172 120.175 47.0339 119.907 46.8672C119.64 46.7005 119.432 46.4635 119.282 46.1562C119.134 45.849 119.06 45.4844 119.06 45.0625C119.06 44.7461 119.102 44.4616 119.187 44.209C119.272 43.9551 119.394 43.7389 119.55 43.5605C119.706 43.3822 119.891 43.2454 120.104 43.1504C120.318 43.0553 120.553 43.0078 120.81 43.0078C121.021 43.0078 121.217 43.0397 121.399 43.1035C121.583 43.166 121.746 43.2552 121.89 43.3711C122.034 43.4857 122.155 43.623 122.251 43.7832C122.347 43.9421 122.414 44.1185 122.45 44.3125H121.95ZM123.241 47.0625V44.0625H123.686V44.5156H123.717C123.772 44.3672 123.871 44.2467 124.014 44.1543C124.157 44.0618 124.319 44.0156 124.499 44.0156C124.532 44.0156 124.575 44.0163 124.625 44.0176C124.676 44.0189 124.715 44.0208 124.741 44.0234V44.4922C124.725 44.4883 124.689 44.4824 124.633 44.4746C124.579 44.4655 124.521 44.4609 124.459 44.4609C124.314 44.4609 124.183 44.4915 124.069 44.5527C123.956 44.6126 123.866 44.696 123.799 44.8027C123.734 44.9082 123.702 45.0286 123.702 45.1641V47.0625H123.241ZM126.415 47.125C126.144 47.125 125.906 47.0605 125.702 46.9316C125.499 46.8027 125.34 46.6224 125.225 46.3906C125.112 46.1589 125.055 45.888 125.055 45.5781C125.055 45.2656 125.112 44.9928 125.225 44.7598C125.34 44.5267 125.499 44.3457 125.702 44.2168C125.906 44.0879 126.144 44.0234 126.415 44.0234C126.685 44.0234 126.922 44.0879 127.125 44.2168C127.33 44.3457 127.489 44.5267 127.602 44.7598C127.717 44.9928 127.774 45.2656 127.774 45.5781C127.774 45.888 127.717 46.1589 127.602 46.3906C127.489 46.6224 127.33 46.8027 127.125 46.9316C126.922 47.0605 126.685 47.125 126.415 47.125ZM126.415 46.7109C126.62 46.7109 126.79 46.6582 126.922 46.5527C127.055 46.4473 127.153 46.3086 127.217 46.1367C127.281 45.9648 127.313 45.7786 127.313 45.5781C127.313 45.3776 127.281 45.1908 127.217 45.0176C127.153 44.8444 127.055 44.7044 126.922 44.5977C126.79 44.4909 126.62 44.4375 126.415 44.4375C126.209 44.4375 126.04 44.4909 125.907 44.5977C125.774 44.7044 125.676 44.8444 125.612 45.0176C125.548 45.1908 125.516 45.3776 125.516 45.5781C125.516 45.7786 125.548 45.9648 125.612 46.1367C125.676 46.3086 125.774 46.4473 125.907 46.5527C126.04 46.6582 126.209 46.7109 126.415 46.7109ZM129.055 47.0625L128.141 44.0625H128.625L129.274 46.3594H129.305L129.946 44.0625H130.438L131.071 46.3516H131.102L131.75 44.0625H132.235L131.321 47.0625H130.868L130.211 44.7578H130.165L129.508 47.0625H129.055ZM132.772 47.0938C132.676 47.0938 132.593 47.0592 132.524 46.9902C132.455 46.9212 132.42 46.8385 132.42 46.7422C132.42 46.6458 132.455 46.5632 132.524 46.4941C132.593 46.4251 132.676 46.3906 132.772 46.3906C132.868 46.3906 132.951 46.4251 133.02 46.4941C133.089 46.5632 133.124 46.6458 133.124 46.7422C133.124 46.806 133.107 46.8646 133.075 46.918C133.043 46.9714 133.001 47.0143 132.948 47.0469C132.896 47.0781 132.837 47.0938 132.772 47.0938Z" fill="#2D4A5D"/>
<path d="M114.708 11.734V12.024C114.398 12.0627 114.166 12.1448 114.012 12.2705C113.857 12.3865 113.751 12.575 113.693 12.836C113.644 13.097 113.62 13.4643 113.62 13.938V22.029C113.504 22.0193 113.383 22.0145 113.258 22.0145C113.142 22.0145 113.016 22.0193 112.881 22.029L106.588 14.054V19.622C106.588 20.1537 106.617 20.5645 106.675 20.8545C106.733 21.1348 106.858 21.3378 107.052 21.4635C107.255 21.5795 107.569 21.6617 107.994 21.71V22C107.81 21.9807 107.569 21.971 107.269 21.971C106.969 21.9613 106.689 21.9565 106.428 21.9565C106.206 21.9565 105.979 21.9613 105.747 21.971C105.515 21.971 105.321 21.9807 105.167 22V21.71C105.476 21.6617 105.708 21.5795 105.863 21.4635C106.017 21.3475 106.119 21.159 106.167 20.898C106.225 20.6273 106.254 20.26 106.254 19.796V13.271C106.254 12.9133 106.225 12.6523 106.167 12.488C106.119 12.314 106.012 12.198 105.848 12.14C105.693 12.0723 105.466 12.0337 105.167 12.024V11.734C105.321 11.7437 105.515 11.7533 105.747 11.763C105.979 11.7727 106.206 11.7775 106.428 11.7775C106.66 11.7775 106.882 11.7727 107.095 11.763C107.308 11.7533 107.501 11.7437 107.675 11.734L113.287 18.6505V14.112C113.287 13.5803 113.258 13.1743 113.2 12.894C113.142 12.604 113.011 12.3962 112.808 12.2705C112.615 12.1448 112.305 12.0627 111.88 12.024V11.734C112.064 11.7437 112.305 11.7533 112.605 11.763C112.905 11.7727 113.185 11.7775 113.446 11.7775C113.678 11.7775 113.905 11.7727 114.128 11.763C114.36 11.7533 114.553 11.7437 114.708 11.734ZM128.556 11.734V12.024C128.247 12.0627 128.015 12.1448 127.86 12.2705C127.706 12.3865 127.599 12.575 127.541 12.836C127.493 13.097 127.469 13.4643 127.469 13.938V22.029C127.353 22.0193 127.232 22.0145 127.106 22.0145C126.99 22.0145 126.865 22.0193 126.729 22.029L120.436 14.054V19.622C120.436 20.1537 120.465 20.5645 120.523 20.8545C120.581 21.1348 120.707 21.3378 120.9 21.4635C121.103 21.5795 121.417 21.6617 121.843 21.71V22C121.659 21.9807 121.417 21.971 121.118 21.971C120.818 21.9613 120.538 21.9565 120.277 21.9565C120.054 21.9565 119.827 21.9613 119.595 21.971C119.363 21.971 119.17 21.9807 119.015 22V21.71C119.325 21.6617 119.557 21.5795 119.711 21.4635C119.866 21.3475 119.967 21.159 120.016 20.898C120.074 20.6273 120.103 20.26 120.103 19.796V13.271C120.103 12.9133 120.074 12.6523 120.016 12.488C119.967 12.314 119.861 12.198 119.697 12.14C119.542 12.0723 119.315 12.0337 119.015 12.024V11.734C119.17 11.7437 119.363 11.7533 119.595 11.763C119.827 11.7727 120.054 11.7775 120.277 11.7775C120.509 11.7775 120.731 11.7727 120.944 11.763C121.156 11.7533 121.35 11.7437 121.524 11.734L127.135 18.6505V14.112C127.135 13.5803 127.106 13.1743 127.048 12.894C126.99 12.604 126.86 12.3962 126.657 12.2705C126.463 12.1448 126.154 12.0627 125.729 12.024V11.734C125.912 11.7437 126.154 11.7533 126.454 11.763C126.753 11.7727 127.034 11.7775 127.295 11.7775C127.527 11.7775 127.754 11.7727 127.976 11.763C128.208 11.7533 128.402 11.7437 128.556 11.734ZM140.607 11.734C140.568 12.1593 140.539 12.5702 140.52 12.9665C140.51 13.3628 140.505 13.6673 140.505 13.88C140.505 14.0733 140.51 14.257 140.52 14.431C140.529 14.605 140.539 14.75 140.549 14.866H140.215C140.119 14.1603 139.969 13.6045 139.766 13.1985C139.563 12.7828 139.297 12.4928 138.968 12.3285C138.649 12.1545 138.272 12.0675 137.837 12.0675H137.243C136.962 12.0675 136.75 12.0917 136.605 12.14C136.46 12.1883 136.363 12.285 136.315 12.43C136.266 12.575 136.242 12.7973 136.242 13.097V20.637C136.242 20.9367 136.266 21.159 136.315 21.304C136.363 21.449 136.46 21.5457 136.605 21.594C136.75 21.6423 136.962 21.6665 137.243 21.6665H137.953C138.388 21.6665 138.77 21.5747 139.099 21.391C139.437 21.1977 139.722 20.8738 139.954 20.4195C140.196 19.9652 140.38 19.3513 140.505 18.578H140.839C140.81 18.8873 140.795 19.2933 140.795 19.796C140.795 20.0183 140.8 20.3325 140.81 20.7385C140.819 21.1445 140.848 21.565 140.897 22C140.404 21.9807 139.848 21.971 139.229 21.971C138.611 21.9613 138.06 21.9565 137.576 21.9565C137.335 21.9565 137.025 21.9565 136.648 21.9565C136.271 21.9565 135.865 21.9613 135.43 21.971C134.995 21.971 134.555 21.9758 134.111 21.9855C133.666 21.9855 133.246 21.9903 132.849 22V21.71C133.159 21.6907 133.391 21.652 133.545 21.594C133.7 21.536 133.801 21.42 133.85 21.246C133.908 21.072 133.937 20.811 133.937 20.463V13.271C133.937 12.9133 133.908 12.6523 133.85 12.488C133.801 12.314 133.695 12.198 133.531 12.14C133.376 12.0723 133.149 12.0337 132.849 12.024V11.734C133.246 11.7437 133.666 11.7533 134.111 11.763C134.555 11.763 134.995 11.7678 135.43 11.7775C135.865 11.7775 136.271 11.7775 136.648 11.7775C137.025 11.7775 137.335 11.7775 137.576 11.7775C138.021 11.7775 138.524 11.7775 139.084 11.7775C139.655 11.7678 140.162 11.7533 140.607 11.734ZM138.345 16.693C138.345 16.693 138.345 16.7413 138.345 16.838C138.345 16.9347 138.345 16.983 138.345 16.983H135.807C135.807 16.983 135.807 16.9347 135.807 16.838C135.807 16.7413 135.807 16.693 135.807 16.693H138.345ZM138.765 14.779C138.727 15.33 138.707 15.7505 138.707 16.0405C138.717 16.3305 138.722 16.5963 138.722 16.838C138.722 17.0797 138.727 17.3455 138.736 17.6355C138.746 17.9255 138.77 18.346 138.809 18.897H138.475C138.427 18.5587 138.335 18.2445 138.2 17.9545C138.074 17.6645 137.89 17.4325 137.649 17.2585C137.407 17.0748 137.093 16.983 136.706 16.983V16.693C136.996 16.693 137.243 16.635 137.446 16.519C137.649 16.3933 137.813 16.2338 137.939 16.0405C138.074 15.8375 138.18 15.6248 138.258 15.4025C138.335 15.1802 138.393 14.9723 138.432 14.779H138.765ZM150.687 11.531C151.325 11.531 151.847 11.6277 152.253 11.821C152.669 12.0047 153.036 12.2222 153.355 12.4735C153.548 12.6185 153.693 12.6378 153.79 12.5315C153.896 12.4155 153.969 12.1497 154.008 11.734H154.341C154.322 12.111 154.307 12.5702 154.298 13.1115C154.288 13.6432 154.283 14.3537 154.283 15.243H153.95C153.901 14.7983 153.838 14.4213 153.761 14.112C153.684 13.793 153.577 13.5127 153.442 13.271C153.307 13.0293 153.113 12.8118 152.862 12.6185C152.62 12.3768 152.34 12.198 152.021 12.082C151.702 11.966 151.369 11.908 151.021 11.908C150.499 11.908 150.054 12.0482 149.687 12.3285C149.319 12.5992 149.02 12.9713 148.788 13.445C148.565 13.9187 148.401 14.4552 148.295 15.0545C148.188 15.6442 148.135 16.258 148.135 16.896C148.135 17.5437 148.188 18.1672 148.295 18.7665C148.411 19.3562 148.585 19.883 148.817 20.347C149.058 20.811 149.368 21.1783 149.745 21.449C150.122 21.7197 150.566 21.855 151.079 21.855C151.398 21.855 151.717 21.797 152.036 21.681C152.364 21.5553 152.645 21.3765 152.877 21.1445C153.254 20.8545 153.51 20.4968 153.645 20.0715C153.78 19.6365 153.882 19.0613 153.95 18.346H154.283C154.283 19.2643 154.288 20.0087 154.298 20.579C154.307 21.1397 154.322 21.6133 154.341 22H154.008C153.969 21.5843 153.901 21.3233 153.805 21.217C153.718 21.1107 153.568 21.1252 153.355 21.2605C152.997 21.5118 152.616 21.7342 152.21 21.9275C151.813 22.1112 151.301 22.203 150.673 22.203C149.648 22.203 148.749 21.9952 147.976 21.5795C147.212 21.1638 146.617 20.5645 146.192 19.7815C145.767 18.9985 145.554 18.056 145.554 16.954C145.554 15.8713 145.772 14.924 146.207 14.112C146.651 13.3 147.255 12.6668 148.019 12.2125C148.792 11.7582 149.682 11.531 150.687 11.531ZM167.508 11.734C167.469 12.227 167.44 12.7007 167.421 13.155C167.411 13.6093 167.406 13.9573 167.406 14.199C167.406 14.4117 167.411 14.6147 167.421 14.808C167.43 15.0013 167.44 15.1657 167.45 15.301H167.116C166.961 14.489 166.763 13.8462 166.522 13.3725C166.29 12.8988 166.009 12.5653 165.681 12.372C165.352 12.169 164.965 12.0675 164.521 12.0675H164.187V20.347C164.187 20.7337 164.226 21.0237 164.303 21.217C164.39 21.4103 164.545 21.5408 164.767 21.6085C164.989 21.6665 165.313 21.7003 165.739 21.71V22C165.439 21.9903 165.038 21.9807 164.535 21.971C164.042 21.9613 163.525 21.9565 162.984 21.9565C162.452 21.9565 161.949 21.9613 161.476 21.971C161.002 21.9807 160.62 21.9903 160.33 22V21.71C160.765 21.7003 161.094 21.6665 161.316 21.6085C161.538 21.5408 161.688 21.4103 161.766 21.217C161.843 21.0237 161.882 20.7337 161.882 20.347V12.0675H161.563C161.118 12.0675 160.731 12.169 160.403 12.372C160.074 12.5653 159.794 12.8988 159.562 13.3725C159.33 13.8365 159.127 14.4793 158.953 15.301H158.619C158.638 15.1657 158.648 15.0013 158.648 14.808C158.658 14.6147 158.663 14.4117 158.663 14.199C158.663 13.9573 158.653 13.6093 158.634 13.155C158.624 12.7007 158.6 12.227 158.561 11.734C159.006 11.7437 159.489 11.7533 160.011 11.763C160.543 11.7727 161.074 11.7775 161.606 11.7775C162.138 11.7775 162.616 11.7775 163.042 11.7775C163.477 11.7775 163.955 11.7775 164.477 11.7775C165.009 11.7775 165.54 11.7727 166.072 11.763C166.604 11.7533 167.082 11.7437 167.508 11.734Z" fill="#2D4A5D"/>
<path d="M97.137 11.426C98.1797 11.426 99.092 11.6357 99.874 12.055C100.667 12.463 101.279 13.0693 101.71 13.874C102.141 14.6673 102.356 15.6193 102.356 16.73C102.356 17.818 102.129 18.7813 101.676 19.62C101.234 20.4473 100.616 21.0933 99.823 21.558C99.0297 22.0113 98.1287 22.238 97.12 22.238C96.0773 22.238 95.1593 22.034 94.366 21.626C93.584 21.2067 92.9777 20.6003 92.547 19.807C92.1163 19.0023 91.901 18.0447 91.901 16.934C91.901 15.846 92.122 14.8883 92.564 14.061C93.0173 13.2223 93.6407 12.5763 94.434 12.123C95.2273 11.6583 96.1283 11.426 97.137 11.426ZM97.069 11.732C96.3777 11.732 95.7657 11.953 95.233 12.395C94.7117 12.8257 94.3093 13.432 94.026 14.214C93.7427 14.9847 93.601 15.8687 93.601 16.866C93.601 17.8747 93.7597 18.7643 94.077 19.535C94.3943 20.3057 94.825 20.9007 95.369 21.32C95.913 21.728 96.5193 21.932 97.188 21.932C97.8793 21.932 98.4857 21.7167 99.007 21.286C99.5397 20.844 99.9477 20.2377 100.231 19.467C100.514 18.685 100.656 17.7953 100.656 16.798C100.656 15.7893 100.497 14.8997 100.18 14.129C99.8627 13.3583 99.432 12.769 98.888 12.361C98.344 11.9417 97.7377 11.732 97.069 11.732Z" fill="#4A5640"/>
</svg>
